<?xml version="1.0"?><svg xmlns="http://www.w3.org/2000/svg" xmlns:xlink="http://www.w3.org/1999/xlink" version="1.1" viewBox="0 0 24 24" style="enable-background:new 0 0 24 24;" xml:space="preserve"><style type="text/css">
	.st0{opacity:0.2;fill:none;stroke:#000000;stroke-width:0.05;stroke-miterlimit:10;}
</style><g id="grid_system"/><g id="Layer_2"><path d="M20,10c-0.55273,0-1,0.44775-1,1c0,1.42139-0.20508,2.84814-0.6084,4.23291   c-0.16602,0.5542-0.63672,0.97998-1.22559,1.10986c-2.56348,0.56152-5.27051,0.76221-7.97363,0.59912   c-0.63672-0.03662-1.28125,0.42676-1.41406,1.08691l-0.33398,1.65918c-0.03418,0.16992-0.15527,0.23975-0.22461,0.26611   c-0.07031,0.02686-0.20801,0.05469-0.34473-0.04785c-1.33887-1.00439-2.36621-2.35938-2.9707-3.91943l-0.2998-0.76855   c-0.8125-2.76611-0.81055-5.68994,0.00391-8.45117c0.16602-0.5542,0.63672-0.97998,1.22363-1.10986   C6.2373,5.35254,7.68066,5.15088,9.12109,5.05811c0.55078-0.03564,0.96875-0.51123,0.93359-1.0625   c-0.03613-0.55078-0.51465-0.96729-1.0625-0.93359C7.45312,3.16162,5.91113,3.37695,4.4043,3.70361   C3.10547,3.99072,2.06641,4.94482,1.69141,6.19727C0.7666,9.33154,0.76465,12.646,1.68555,15.78418   c0.00781,0.02637,0.0293,0.0918,0.03906,0.11768l0.31445,0.80908c0.74023,1.90771,1.99707,3.56592,3.63574,4.79541   c0.41602,0.31201,0.91113,0.47314,1.41211,0.47314c0.28418,0,0.57031-0.05176,0.8457-0.15674   c0.76172-0.29053,1.31152-0.94141,1.47266-1.74023l0.22461-1.11475c2.68164,0.12451,5.39844-0.10889,7.96582-0.67139   c1.29883-0.28711,2.33789-1.24121,2.71387-2.49707C20.76758,14.22559,21,12.61084,21,11C21,10.44775,20.55273,10,20,10z"/><path d="M20.8252,2.59912c0,0,0,0,0-0.00049c-1.2041-1.2041-3.1084-1.29443-4.41895-0.26758   c-1.30957-1.02686-3.21387-0.9375-4.41895,0.26758c-1.16797,1.16699-1.30078,3.04346-0.31055,4.36426l0.49023,0.65332   c0.99512,1.32715,2.30664,2.42188,3.79199,3.16504c0.14062,0.07031,0.29395,0.10547,0.44727,0.10547   s0.30664-0.03516,0.44727-0.10547c1.48535-0.74316,2.79688-1.83789,3.79297-3.16553l0.48828-0.65283   C22.12598,5.6416,21.99219,3.76562,20.8252,2.59912z M19.53418,5.76318L19.0459,6.41602   c-0.70898,0.94531-1.61426,1.74512-2.63965,2.33594c-1.02539-0.59082-1.93066-1.39062-2.63965-2.33594L13.27637,5.7627   c-0.39648-0.5293-0.34277-1.28125,0.125-1.74951c0.26074-0.26074,0.60352-0.39111,0.94629-0.39111s0.68555,0.13037,0.94629,0.3916   l0.40527,0.40479c0.1875,0.1875,0.44238,0.29248,0.70703,0.29248c0,0,0,0,0.00098,0c0.26465,0,0.51953-0.10547,0.70703-0.29346   l0.40332-0.40381c0.52148-0.52246,1.37207-0.52197,1.89355-0.00049c0,0,0,0,0,0.00049   C19.87891,4.48096,19.93262,5.23291,19.53418,5.76318z"/></g></svg>